<svg height="16pt" preserveAspectRatio="xMidYMid meet" viewBox="0 0 16 16" width="16pt" xmlns="http://www.w3.org/2000/svg"><g transform="matrix(.1 0 0 -.1 0 16)"><path d="m71 136c-10-12-6-26 10-26 11 0 19 29 10 35-5 2-14-1-20-9z"/><path d="m15 120c-7-12 2-30 16-30 5 0 9 9 9 20 0 21-15 27-25 10z"/><path d="m103 115c-3-9-3-18 0-21 9-9 27 6 27 22 0 19-19 18-27-1z"/><path d="m32 69c-29-11-24-30 11-47s47-9 38 25c-8 31-17 35-49 22z"/><path d="m110 60c-8-5-11-12-8-16 10-9 38 3 38 16 0 12-10 13-30 0z"/></g></svg>