<svg height="324" width="324" xmlns="http://www.w3.org/2000/svg"><path d="m239 70v1h8z" fill="#9d9d9d"/><path d="m247 70v6c6.948.0575 13.65 1.4295 20 4.3125 5.475 2.4856 9.907 7.2114 16 4.6875-5.914-11.6457-24.157-14.902-36-15z" fill="#dc0b0a"/><path d="m254 70v1h5zm-20 1v1h3z" fill="#9d9d9d"/><path d="m0 78c5.01033 14.4226 29.062 10 41 10h126v1c-34.648 6.7422-31 40.544-31 68 0 14.513-1.538 29.88 2.428 44 10.034 35.716 43.908 52 78.572 52v-86c0-13.851-2.147-29.667 5.468-42 10.266-16.626 38.223-28.9186 55.532-37v-2c-9.559-6.3039-19.491-9.9682-31-10v-5l-35 6.9846z" fill="#030303"/><path d="m260 71v1h3zm-29.333 1.3333.666.3334zm34 0 .666.3334zm-37.667.6667 1 1zm40 0 1 1zm-43 1 1 1zm46 0 1 1zm-48.333 1.3333.666.3334zm-2.667.6667 1 1zm54 0 1 1zm-56 1 1 1zm58 0 1 1zm3 2 1 1zm-278 1 1 1zm279 0 1 1zm-277 3 1 1zm260.667.3333.666.3334zm20.666.3334.334.6666zm-279.333.3333 1 1zm256 0-1 3h1z" fill="#9d9d9d"/><path d="m261.473 85.0857c-3.514 2.2133.693 7.3372 3.769 4.868 2.859-2.295-.78-6.7506-3.769-4.868z" fill="#fff"/><path d="m265 84 1 1zm-260 1 1 1zm261 0 1 1zm16 0 1 1zm-274.33333 1.3333.66666.3334zm272.33333-.3333 1 1zm-270 1v1h3zm257 0 1 1zm11 0 1 1zm-263 1v1h103 49c-12.338-4.8421-32.742-1-46-1z" fill="#9d9d9d"/><path d="m163 88 1 1z" fill="#efe215"/><path d="m259.333 88.6667.334.6666zm16.667-.6667 1 1z" fill="#9d9d9d"/><path d="m83 89v1l52 36c4.806-15.817 8.796-30.7457 27-36l-25-1z" fill="#efe215"/><path d="m266 89 1 1zm8.667.3333.666.3334zm14 0 .666.3334zm-129.667.6667 1 1zm82 0v1h7zm19 0 1 1zm13 0 1 1zm13 0 1 1z" fill="#9d9d9d"/><path d="m281 98h42c-11.517-6.1679-34.163-12.4852-42 0z" fill="#030303"/><path d="m293 90v1h3zm-136 1 1 1zm82 0-1 2z" fill="#9d9d9d"/><path d="m218 110 34-18c-10.211-4.2845-33.628 6.6452-34 18z" fill="#fff"/><path d="m252 91 1 1zm10 0v1h3zm9 0 1 1zm13 0 1 1z" fill="#9d9d9d"/><path d="m285 91 1 1z" fill="#dc0b0a"/><path d="m298.667 91.3333.666.3334zm-143.667.6667 1 1zm114 0 1 1zm13 0-5 3v1l6-3z" fill="#9d9d9d"/><path d="m241 127c13.23-7.537 36.917-21.383 44-35-11.361 4.7788-21.886 14.004-32 21.025-5.349 3.713-10.651 7.288-12 13.975z" fill="#dc0b0a"/><path d="m303.667 92.3333.666.3334zm-150.667.6667 1 1zm83 0 1 1zm13 0 1 1zm18 0 1 1zm40 0v1h3zm-73 1 1 1zm13 0 1 1zm19 0 1 1z" fill="#9d9d9d"/><path d="m280 94 1 1z" fill="#030303"/><path d="m311 94v1h3zm-161 1 1 1zm82 0 1 1zm13 0 1 1zm19 0 1 1z" fill="#9d9d9d"/><path d="m278 95 1 1z" fill="#030303"/><path d="m315 95v1h3zm-166 1 1 1zm81.667.3333.666.3334zm12.333-.3333 1 1zm19 0 1 1zm13 0 1 1z" fill="#9d9d9d"/><path d="m276.667 96.3333.666.3334z" fill="#030303"/><path d="m319 96v1h3zm-171 1 1 1zm81 0 1 1zm12 0 1 1zm19 0 1 1zm13 0 1 1z" fill="#9d9d9d"/><path d="m225 138c10.075-3.875 13.78-11.925 21.044-18.826 8.71-8.275 20.025-14.474 29.956-21.174-5.258-.8594-11.515 4.636-16 7.14-14.025 7.829-32.326 15.02-35 32.86z" fill="#030303"/><path d="m323 97-43 1v1h33zm-96 1 1 1zm13 0 1 1zm18 0 1 1zm13 0 1 1zm-46 1 1 1zm13 0 1 1zm19 0 1 1zm-112 1 1 1zm78 0 1 1zm13 0 1 1zm19 0 1 1zm13 0 1 1zm9 0 1 1zm-133 1 1 1zm77 0 1 1zm13 0 1 1zm19 0 1 1zm13 0 1 1zm10 0 1 1zm-133 1 1 1zm77 0 1 1zm12 0 1 1zm19 0 1 1zm13 0 1 1zm-46 1 1 1zm12.667.333.666.334zm19.333-.333 1 1zm12 0 1 1zm11 0 1 1zm-56 1 2 7zm12 0 1 1zm19 0 1 1zm12.667.333.666.334zm11.333-.333 1 1zm-131 1 1 1zm86 0 1 1zm19 0 1 1zm13 0 1 1zm11 0 1 1zm-45 1 1 1zm32 0 1 1zm12 0 1 1zm-129 1 1 1zm83 0 1 1zm20 0 1 1zm12 0 1 1zm13 0 1 1zm-46 1 1 1zm19 0 1 1zm12 0 1 1zm13 0 1 1zm-127 1 1 1zm81 0 1 1zm32 0 1 1zm13 0 1 1zm-27 1 1 1zm12 0 1 1zm-112 1 1 1zm19.667.333.666.334zm78.333-.333 1 1zm12 0 1 1zm14 0 1 1z" fill="#9d9d9d"/><path d="m201 172c0-9.066 1.914-20.697-2.442-29-4.59-8.748-15.675-14.516-23.558-19.975-3.513-2.433-13.115-11.903-17.61-9.853-7.66 3.494-5.225 18.322-2.202 23.824 7.602 13.836 32.198 27.417 45.812 35.004z" fill="#fff"/><path d="m160 112 1 1zm75 0 1 1zm11 0 1 1zm15 0 1 1zm-100 1 1 1zm72 0 1 1zm12 0 1 1zm-108 1 1 1zm18 0 1 1zm7 0 1 1zm70 0 1 1zm11 0 1 1zm15 0 1 1zm-94 1 1 1zm66 0 1 1zm11 0 1 1zm16 0 1 1zm-103 1 1 1zm11 0 1 1zm64 0 1 1zm11 0 1 1zm-12 1 1 1zm10 0 1 1zm16 0 1 1zm-117.667 1.667.334.666zm16.667-.667 1 1zm15 0 1 1zm59 0 1 1zm9 0 1 1zm17 0 1 1zm-84 1 1 1zm57 0 1 1zm9 0 1 1zm-64 1 1 1zm54 0 1 1zm9 0 1 1zm16 0 1 1zm-98 1v3h1zm20 0 1 1zm52 0 1 1zm9 0 1 1zm-59 1 1 1zm58 0 1 1zm15 0 1 1zm-72 1 1 1zm56 0 1 1zm15 0 1 1zm-24 1 1 1zm8 0 1 1zm-95 1v60h1v-41zm43 0 1 1zm51 0 1 1zm14 0 1 1zm-64 1 1 1zm42 0 1 1zm21 0 1 1zm-61 1 1 1zm47 0 1 1zm12 0 1 1zm-58 1 1 1zm38 0 1 1zm7.333.667.334.666zm11.667-.667 1 1zm-86.667 1.667.334.666zm31.667-.667 1 1zm1 1 1 1zm34.333.667.334.666zm7 0 .334.666zm9.667-.667 1 1zm-50 1 1 1zm49 0 1 1zm-47 1 1 1zm-35 1 1 1zm36 0 1 1zm29.333.667.334.666zm7 0 .334.666zm6.667-.667 1 1zm-41 1 1 1zm40 0 1 1zm-39 1 1 1zm-38 1 1 1zm39 0 1 1zm31 0v4h1zm4 0 1 1zm-72.667 1.667.334.666zm38.667-.667 1 1zm33 0 1 1zm-32 1 1 1zm-39 1 1 1zm40 0 1 1zm21 0v4h1zm-60 1 1 1zm40 0 1 1zm1 2 1 1zm-38 1 1 1zm1 1 1 1zm38 0 1 1zm18 0v109h1v-76zm-55 1 1 1zm2 1 1 1zm1 1 1 1zm35.333.667.334.666zm-33.333.333 1 1zm1 1 1 1zm1 1 1 1zm2 1 1 1zm1 1 1 1zm2 1 1 1zm1 1 1 1zm3 2 1 1zm1 1 1 1zm2 1 1 1zm1 1 1 1zm2 1 1 1zm1 1 1 1zm1 1 1 1zm2 1 1 1zm1 1 1 1zm2 1 1 1zm1 1 1 1zm1 1 1 1zm2 1 1 1zm1 1 1 1zm2 1 1 1zm1 1 1 1zm-63 20v4h1zm1 6v3h1zm1.333 4.667.334.666zm1 3 .334.666zm1 3 .334.666zm.667 2.333 1 1zm1 2 1 1zm1 2 1 1zm1 2 1 1zm1 2 1 1zm1 1 1 1zm1 2 1 1zm1 1 1 1zm1 1 1 1zm2 3 1 1zm1 1 1 1zm1 1 1 1zm1 1 1 1zm1 1 1 1zm1 1 1 1zm1 1 1 1zm1 1 1 1zm1 1 1 1zm3 2 1 1zm1 1 1 1zm3 2 1 1zm1.667 1.333.666.334zm1.333.667 1 1zm2 1 1 1zm2 1 1 1zm1.667 1.333.666.334zm2 1 .666.334zm2 1 .666.334zm2 1 .666.334zm2.333.667 1 1zm2.667 1.333.666.334zm3 1 .666.334zm3.333.667v1h3zm5 1v1h4z" fill="#9d9d9d"/></svg>