<svg enable-background="new 306.14 277.986 257 239" height="239" viewBox="306.14 277.986 257 239" width="257" xmlns="http://www.w3.org/2000/svg"><g fill="#d2110c"><circle cx="372.889" cy="453.226" r="49.169"/><path d="m422.041 346.566c0 27.027-21.909 48.937-48.937 48.937-27.026 0-48.937-21.909-48.937-48.937 0-27.026 21.91-48.937 48.937-48.937h48.937z"/><circle cx="461.748" cy="364.865" r="30.559"/><ellipse cx="495.995" cy="309.188" rx="19.545" ry="14.631" transform="matrix(.7067 -.7075 .7075 .7067 -73.2802 441.6024)"/><ellipse cx="459.004" cy="314.891" rx="19.545" ry="14.631" transform="matrix(.7067 -.7075 .7075 .7067 -88.1664 417.0936)"/><ellipse cx="518.418" cy="331.707" rx="19.545" ry="14.631" transform="matrix(.7067 -.7075 .7075 .7067 -82.6364 464.0716)"/><ellipse cx="512.438" cy="368.382" rx="19.545" ry="14.631" transform="matrix(.7067 -.7075 .7075 .7067 -110.3381 470.5968)"/></g><path d="m378.324 463.61c-3.619 6.526-10.578 10.945-18.569 10.945-11.719 0-21.218-9.499-21.218-21.218 0-11.718 9.499-21.217 21.218-21.217 7.996 0 14.958 4.423 18.575 10.956l-6.82-.001c-2.86-3.274-7.066-5.342-11.755-5.342-8.619 0-15.604 6.986-15.604 15.604s6.984 15.604 15.604 15.604c4.684 0 8.887-2.063 11.746-5.331z" fill="#fff"/><path d="m433.182 411.357h19.842c6.869 0 13.629 3.107 13.629 10.957 0 4.198-2.017 8.178-6.105 9.758v.109c4.144.981 5.342 5.614 5.669 9.321.109 1.636.272 7.359 1.636 8.776h-10.03c-.872-1.308-1.036-5.124-1.146-6.215-.271-3.924-.927-7.958-5.669-7.958h-7.686v14.173h-10.14zm10.14 16.9h8.503c3.053 0 4.688-1.636 4.688-4.579 0-2.889-2.288-4.197-5.124-4.197h-8.066v8.776z"/><path d="m471.574 411.357h31.018v8.123h-20.878v6.814h19.079v7.85h-19.079v7.413h21.423v8.723h-31.563z"/><path d="m507.498 411.357h16.734c11.938 0 19.08 7.251 19.08 19.299 0 12.756-7.25 19.624-19.08 19.624h-16.734zm10.139 30.201h4.798c7.687-.163 10.738-3.161 10.738-10.957 0-7.085-3.815-10.521-10.738-10.521h-4.798z"/><path d="m433.182 454.269h10.14v30.199h18.152v8.723h-28.292z"/><path d="m464.39 454.269h10.14v38.922h-10.14z"/><path d="m487.337 480.106c.218 4.579 3.053 6.052 7.359 6.052 3.053 0 6.215-1.091 6.215-3.979 0-3.435-5.562-4.09-11.176-5.67-5.562-1.581-11.394-4.089-11.394-11.23 0-8.503 8.559-11.829 15.863-11.829 7.741 0 15.536 3.762 15.591 12.538h-10.139c.163-3.543-3.162-4.688-6.27-4.688-2.18 0-4.905.764-4.905 3.325 0 2.998 5.614 3.543 11.283 5.124 5.615 1.581 11.284 4.198 11.284 11.229 0 9.867-8.395 13.029-16.953 13.029-8.94 0-16.845-3.925-16.9-13.901z"/><path d="m542.842 462.99h-11.612v30.2h-10.138v-30.2h-11.611v-8.722h33.361z"/><text font-family="'ArialMT'" font-size="13.8989" transform="translate(542.2512 419.8281)">©</text><path d="m350.842 458.757v-9.954h1.981v9.954z" fill="#fff"/><path d="m354.69 448.803h2.091v5.392c0 .854.026 1.41.078 1.663.09.408.301.735.637.984.339.245.8.366 1.384.366.594 0 1.041-.116 1.343-.346.301-.236.482-.523.544-.862.062-.34.092-.903.092-1.69v-5.507h2.091v5.229c0 1.194-.057 2.038-.169 2.531-.113.493-.323.91-.629 1.249-.301.341-.706.612-1.216.815-.508.199-1.172.299-1.992.299-.988 0-1.739-.108-2.253-.326-.509-.222-.912-.507-1.209-.855-.296-.353-.492-.723-.586-1.106-.137-.57-.205-1.413-.205-2.525v-5.311" fill="#fff"/><path d="m364.205 453.841c0-1.014.149-1.865.449-2.553.224-.507.526-.962.909-1.364.389-.402.813-.702 1.271-.896.611-.263 1.316-.393 2.114-.394 1.445.001 2.602.455 3.466 1.364.564.589.945 1.327 1.144 2.213l-2.076.022c-.124-.417-.309-.764-.553-1.039-.49-.562-1.144-.843-1.96-.843s-1.476.285-1.974.855c-.5.565-.749 1.421-.749 2.567m.001.001c0 1.126.255 1.982.769 2.565.513.579 1.164.869 1.954.869.789 0 1.436-.287 1.94-.863.28-.319.484-.727.609-1.221l2.08.045c-.184.969-.573 1.768-1.171 2.399-.86.906-2.012 1.357-3.452 1.357-1.459 0-2.619-.45-3.48-1.352-.86-.905-1.291-2.149-1.291-3.733" fill="#fff"/><path d="m374.816 458.757v-9.954h1.776l4.541 6.894v-6.894h1.847v9.954h-1.73l-4.671-6.981.194 6.981z" fill="#fff"/></svg>