<svg height="32pt" preserveAspectRatio="xMidYMid meet" viewBox="0 0 32 32" width="32pt" xmlns="http://www.w3.org/2000/svg"><path d="m14 267c-8-22 14-67 33-67 9 0 36 10 61 21 31 15 47 18 54 11 8-8 4-13-15-17-33-9-71-50-63-70 9-24 35-29 84-16s61 9 43-13c-10-11-7-17 11-30 12-9 28-16 34-16s18-10 27-23c8-12 18-19 23-15 12 12-14 59-36 65-23 6-26 23-8 41 10 9 8 16-4 29-17 16-45 13-114-14-32-12-11 18 26 37 26 13 40 27 40 40 0 38-67 52-120 25-27-14-30-14-40 5-12 23-28 26-36 7z" transform="matrix(.1 0 0 -.1 0 32)" fill="#8E158C"/></svg>
