<svg height="128" viewBox="0 0 128 128" width="128" xmlns="http://www.w3.org/2000/svg" xmlns:xlink="http://www.w3.org/1999/xlink"><defs><path id="a" d="m93.849 0v2.139c-2.822.501-4.957 1.388-6.407 2.659-2.077 1.889-4.525 4.779-6.132 8.672l-32.685 66.712h-2.175l-32.813-67.579c-1.528-3.469-3.606-5.589-4.233-6.359-.979-1.195-2.184-2.13-3.614-2.804-1.431-.675-3.361-1.108-5.79-1.301v-2.139h31.928v2.139c-3.683.347-5.439.964-6.537 1.85-1.097.886-1.645 2.023-1.645 3.411 0 1.927.901 4.933 2.703 9.018l24.233 45.959 23.692-45.381c1.842-4.47 3.37-7.573 3.37-9.307 0-1.118-.568-2.187-1.705-3.209-1.136-1.021-2.422-1.744-5.125-2.168-.196-.038-.529-.096-1-.173v-2.139h23.935z"/></defs><use x="3.02" xlink:href="#a" y="23.909"/><use x="38.265" xlink:href="#a" y="23.909"/></svg>