<svg enable-background="new 0 0 229.4 324.2" viewBox="0 0 229.4 324.2" xmlns="http://www.w3.org/2000/svg"><g fill-rule="evenodd"><path d="m174 35.4c-5.5-.3-6.8 3.4-8.4 7-2.4-1.7-3.9-4.8-7.2-5.2-2.9-.3-7 2.4-9.4 4.6-3.4 3.2-5.3 6.5-5.4 12-2.2-.2-4.6 1.1-6.8.8-1.7-.2-4.7-2.6-6.4-3.6-6.2-3.6-12.8-7.5-18.8-10.8 6.4-11.2 21.4-16.7 38-18 12-.9 19.7 5.9 24.4 13.2zm-38-2c-1.4 1.3-3.1 3.4-3 5.4 2.3-.3 2.8-2.7 4.2-4 1-1 2.4-1.6 3.6-2.2 1.1-.6 3.1-.9 3.4-2.6-3.2-.3-6.3 1.5-8.2 3.4z" fill="#4da64e"/><path d="m144.2 30c-.3 1.7-2.3 2-3.4 2.6-1.2.6-2.6 1.2-3.6 2.2-1.4 1.3-1.9 3.7-4.2 4-.1-2 1.6-4.1 3-5.4 1.9-1.9 5-3.7 8.2-3.4z"/><path d="m184.2 47.2c-4.7 1.1-9.2 2.6-14 3.6-.1-2.1-3-4.4-3.2-6.4-.2-2.3 2.6-6.6 4.8-7 .5-.1 1.4 0 1.8 0 5.5.5 8.9 5.5 10.6 9.8z" fill="#fff"/><path d="m168.2 51.2c-7.6.7-15.1 1.6-22.6 2.4-.1-3.7 1.4-7 3.6-9.4 1.9-2 6.1-5.6 9.4-5 2.2.4 4.5 3.3 5.8 5 1.7 2.3 2.9 4.4 3.8 7z" fill="#fff"/><path d="m142 79.4c2.4.7 4.8-1.1 6.8-.6s2.4 3.5 3.6 4.2c-6.3-.6-13.1 0-15.8 3.6 1.7.9 4-.9 6.6-1.4 2.7-.6 5.6-.4 8.4-.6.7 0 1.9.4 2-.6 2.2 1.8 4.4 3.7 7.6 3.8 5.4.1 9.1-4.6 11.6-7.6 9 4 22.8 6.9 24 18.6.5 4.6-.4 9-3.4 11.4-2.7 2.1-7.3 2.8-11.2 3.4-4.2.7-8.8 1.2-13.6 1-11.6-.6-19.8-6.4-26.4-11.8 1-1.8 3.3-2.3 3.6-4.8-3.1.1-4.4 3.4-6.6 5.2-1.8 1.4-4.3 2-5.2 4.2 2 .7 3.7-.9 5.4-2.2.3-.3 1.3-1.2 1.4-1.2.6 0 5.1 4.1 5.8 4.6 7.3 5 16.5 8.8 28.6 7.8-3.3 5.7-10.7 8.9-19 9-9 .1-18.4-3.8-28.2-4.4-4.4-.2-10.3 1.1-14.2.2-4.4-1-9.3-5.6-12.2-8.6-3.7-3.9-6.4-7.7-7.4-13.2-1.1-6-1.2-13.4.2-19.2.7-2.7 2-4.9 3.4-7 1.2-1.8 3.4-4.3 3.8-6.4.3-1.4 0-2.8.2-4 1.1-7.8 5-16 8.8-21 8.5 4.6 16.8 9.5 25 14.4 2.3 7.6 3.6 16.1 6.4 23.2z" fill="#4da64e"/><path d="m190.4 47.4c1.4 2.8 1.6 6.8 2.8 9.8-1 1.6-2.5 2.7-3 4.8-.3-5.3-1.4-9.8-3.2-13.6 1.1-.4 2.4-.5 3.4-1z" fill="#fff"/><path d="m143.6 55.8c-.1 8.6.7 16.2 4.4 21-1.4.5-3.5.4-5 .8-1.7-7.1-3.5-14.1-5.4-21 1.6-.6 4-.6 6-.8z" fill="#4da64e"/><path d="m180.2 56.6c3.4 2.7 3 11.9-.6 14-6.6.6-7.1-15.4.6-14z"/><path d="m157.8 65.8c.2-3.8 1.4-8.3 4.6-8.2 2.6.1 3.6 3.7 3.8 7v2.2c1 5.9-8.7 9.2-8.4 1.6 0-.9 0-1.7 0-2.6z"/><path d="m208.2 125.2c-6.1-3.8-12.5-7.4-18.2-11.6 8.7-1 10.6-13.8 6.6-20.8-.2-.3-1.4-1.8-1.4-2 0-.6 2.2-3.9 2.4-5.6.7-6.3-6.6-11-6.6-18.4 0-5.3 4.1-11.3 10.2-8 2.2 1.2 4.7 4.5 6.6 7 2.1 2.8 3.7 5.5 5 8.4 2.7 5.7 5.6 13.6 5.6 21.2 0 12.2-5.4 21.7-10.2 29.8z" fill="#4da64e"/><path d="m166.2 64.6c.3.3.3 1.9 0 2.2 0-.7 0-1.5 0-2.2z" fill="#4da64e"/><path d="m157.8 68.4c-.3-.4-.3-2.2 0-2.6z" fill="#3b556a"/><g fill="#fff"><path d="m189.6 70.8c1.7 5.7 8.8 11.2 4.6 18.4-3.7-2.8-7.5-5.6-12.2-7.4 3.4-2.8 7-5.4 7.6-11z"/><path d="m173.8 78c0-1 0-2 0-3 4.4-.3 8.9-2.1 13.2-3.2.8 2.6-3.6 6.8-6.2 8.2-3.3.3-5.1-.9-7-2z"/><path d="m151.4 78.4c6.8-.8 13.7-1.5 20.2-2.6 1 3.5-2.2 5.8-4.2 7.4-6.3 5.3-13 .6-16-4.8z"/></g><path d="m212.6 121.4c1.8 1.5 2.9 4.6 2.2 8-1.7-1.1-3.4-2.2-5.2-3.2 1.1-1.5 2-3.2 3-4.8z" fill="#3b556a"/><path d="m164.4 126c-1.1 1.8-2.1 3.8-3.4 5.4-12.9 3.2-31.3 3-42-2-.2-.4.7-1.7 1.2-3 .5-1.2 1-2.4 1.4-3.4 15.4-1.3 27.9 6.9 42.8 3z" fill="#4da64e"/><path d="m172.4 124c.6 3 .4 9.4-2.6 10.2-.1-3 1.4-6.2 1.2-10 .2-.2.5-.1.6-.4.4 0 .4.2.8.2z"/><path d="m170.2 124.2c.5 5.2-1.6 11.1-5 13.8-.7-2.2 1.2-4.1 2-6.2.8-2.2 1.2-4.5 1.8-7 .1-.3.4-.3.4-.6z"/><path d="m114.8 128c.5-.5 1.8-.1 2.6-.2-.1.4-.5.4-.6.8-.9 0-1.2-.6-2-.6z" fill="#3b556a"/><path d="m186 155.2c1.3 3.1 1.5 6.8 2.2 10.2s2.3 6.5 2.4 9.6c-.8.6-1.4.1-2-.4-1.1.8-1.3 1.4-2.2 1.8-11.1 5.2-12.4-17-1-12.8.7-2.1-3.4-7.9.6-8.4zm-3.6 19.2c2.1.5 4.7-.5 5-2.8.2-1.7-1.1-5.4-2.2-6-.8-.4-1.8-.2-2.8 0-4.1 1-3.9 7.9 0 8.8z" fill="#fff"/><path d="m182.4 165.6c1-.2 2-.4 2.8 0 1.1.6 2.4 4.3 2.2 6-.3 2.3-2.9 3.3-5 2.8-3.9-.9-4.1-7.8 0-8.8z" fill="#3b556a"/><path d="m175.6 179.6c-2.1 1.2-2.9-3-3.6-5-.9-2.5-1.4-4.6-2.8-5.4-1.5.4-2 1.7-3 2.6.3 1.9 1.1 3.3 1.8 5.2.4 1.2 1.9 4.5.2 5-1.9.5-2.5-4-3-5.4-.9-2.4-1.4-4.2-2.2-6-1.7.9-2 3-3 4.6-.5 1.5 2.9 7.2.8 7.8-2 .6-2.4-3.2-2.8-5.2-.7-3.5-2.6-6-1.2-9 2.2-.2 1.8 2.2 2.2 3.8.5-2.8 3.7-6.4 6.4-3.4 1-1.9 3.7-3.5 5.8-2.2 1.4.8 2 4.1 2.8 6.2.9 2.4 2.4 4.8 1.6 6.4z" fill="#fff"/><path d="m153.8 176c-.5.1-.9.3-1.6.2-.5-.6-.7-1.5-.8-2.6-2.3.7-3.9 2.1-4 4.4-.1 2.8 2.7 6.2 1.2 8.4-.5 0-.9 0-1.4 0-1.4-4-3.1-8.8-3.2-13.4.2 0 .4 0 .4-.2 1.4-.2 1.7.9 2 1.8 1.7-3.8 8.9-5.8 7.4 1.4z" fill="#fff"/><path d="m105.4 190c-3.4 7.6-1.5 19.7.4 28.4.4 2 1.6 5.2 1.4 6.4-.3 2.3-7.1 6.4-10.8 6.4-5.8 0-7.6-5.6-10.6-9.2-5.5-6.5-14.2-14.2-14.2-25.6 0-6.8 2.3-12.8 4.6-17.6.7-1.3 2.3-2.7 1.8-4.6-2.1-.5-2.3 2.4-3.2 3.6-1.8-1.2-3.3-2.8-3.6-5.6 17.1.2 24.2 10.4 34.2 17.8z" fill="#4da64e"/><g fill="#fff"><path d="m140.8 174.6c.1 2.7.5 7.8.2 10.8-.1 1.1-.5 3.3-1.4 3.6-3 .9-4.4-6.5-5.4-8-1.4 2.8 0 8.2-2.4 10-2.9-1.8-4.1-6.1-5.6-10-.5-1.2-1.5-3.1.2-3.4 1.8-.3 2.1 3 2.6 4.4.7 1.9 1.7 3.2 2 5 1.4-3-.5-9.2 2-11.2 3.2 1.9 3.7 6.7 5.6 10 .7-3.4-.4-7.7.2-11 .1-1 1.6-.6 2-.2z"/><path d="m185.2 187c1.1 2.5 1 4.7 1.4 7 .7 3.7 2.5 9.5-1.2 11.8-1.7 1-7.4 2.4-7.4.2 0-1.7 5-1.2 6.2-2.2 2.1-1.7 1-4.2.8-7.2-.9 2.1-2.9 4.5-6.2 3.4-7.7-2.5-2.7-17.8 6.4-13zm-7.8 5.8c-.2 1.7.6 4.4 2 4.8 4.6 1.4 5.2-5 4.2-8.8-3-.7-5.9 1.1-6.2 4z"/><path d="m172.2 193.8c-.5.1-.9.3-1.6.2-.5-.6-.7-1.5-.8-2.6-2.3.7-3.9 2.1-4 4.4-.1 2.8 2.7 6.2 1.2 8.4-.5 0-.9 0-1.4 0-1-1.8-1.4-4.4-2-6.8-.6-2.3-2-4.9-.8-6.8 1.4-.2 1.7.9 2 1.8 1.7-3.8 8.9-5.8 7.4 1.4z"/></g><path d="m183.6 188.8c1 3.8.4 10.2-4.2 8.8-1.4-.4-2.2-3.1-2-4.8.3-2.9 3.2-4.7 6.2-4z" fill="#3b556a"/><path d="m153.6 193.2c7.9-1.3 8.7 14 1.2 14-6.9 0-8.2-12.8-1.2-14zm.4 11.4c5.7 1.3 4.8-10.3-.4-8.8-3.7 1-2.4 8.2.4 8.8z" fill="#fff"/><path d="m153.6 195.8c5.2-1.5 6.1 10.1.4 8.8-2.8-.6-4.1-7.8-.4-8.8z" fill="#3b556a"/><path d="m146.2 206.8c.6-.1 1.6.1 1.6 1.4.1 4.3-6-.9-1.6-1.4z" fill="#fff"/><path d="m99.6 232.6c-.3 3-1.1 6.6-1.4 10-.1.9-.7 2.6.6 2.8 1.5-1.1 1.5-4.2 1.8-6.4.4-2.4.8-4.9.6-7 2.6-1.2 4.5-3.1 6.8-4.6.8 1.7.3 3.2.4 5 .1 2.6 1.6 6 2.6 8.8 2.1 5.7 4.7 10.3 7.8 15 1.5 2.3 2.8 5.1 5.2 6.2.4-2.2-1.6-4-2.8-5.8-3.5-5.4-7.3-11.7-9-18.4 1.8-.4 2.2 1.6 3 2.6 2.3 2.8 6 5.2 9.8 6.8 2.4 1 5.3 2.4 8 2 .1-1.6-2-1.6-3-2-5.5-2-11.7-4.9-14.6-9.8 33.9-3.6 68.9-7.2 106.8-6.2 4 21.8.8 43.5-9.2 55.8-10.1 12.4-25.3 21.6-43.2 25-38 7.2-73.5-4.3-89.6-25.8-1.3-1.7-2.3-3.4-3.4-5.2-1-1.6-1.9-3.6-3.6-4.8-1.6 1.5.8 4.4 1.8 6 1.2 1.9 2.8 4 3.8 5.6-13.3 9.3-28.5 19.6-44.6 27.4-5.2 2.5-11.5 5.6-17.8 6-11.5.8-14.6-9.4-13.8-21.2.4-5.1 2.2-10.4 3.8-15.2 4.5-13.9 11.1-27.2 19-37.4 11.6-15.1 28.1-23 50.8-24.4 1.8-.1 5.8-.8 7.8-.2 1.8.6 3.2 4.3 4.8 6.2 2.2 2.6 5.7 4.5 10.8 3.2z" fill="#4da64e"/><path d="m183.6 42.2c1.5.7 3.9 2.4 5.4 3.8-1.2 0-1.8.6-3 .6-.5-1.7-1.4-3.1-2.4-4.4z" fill="#fff"/><path d="m168.6 53c2 5.5 4 14.8 2 21.2-5 .5-9.9 1.2-15.2 1.8-1.5.2-3.9.9-5 .6-2.2-.6-3.5-6.5-4-9-.8-4-.8-8-1-12 7.6-1 15.6-1.6 23.2-2.6zm-2.4 11.6c-.2-3.3-1.2-6.9-3.8-7-3.2-.1-4.4 4.4-4.6 8.2-.3.4-.3 2.2 0 2.6-.3 7.6 9.4 4.3 8.4-1.6.3-.3.3-1.9 0-2.2z" fill="#fff"/><path d="m159.6 133.8c-1.3 3.4-4.6 6-4.8 9.8 2.1-.3 2.7-2.7 3.6-4.2 2.8-4.5 5.9-9.5 8.6-14.4 4.8-1.6 8.6-4.2 10.4-8.8 3.7-.3 7.1-.9 10.2-1.8 8.6 5.8 17.7 11.2 26.6 16.8-4.3 7.8-10.7 14.7-16.6 20.2-.8-2.6-.3-6.5-2.2-8-1.4 1.1-.6 3.6-.2 5.6s1.7 4 .2 4.8c-2.2-.3-2.9-4.8-5.6-4.6-.5 1.9 1.5 3.3 2.4 4.4 12.4 14.9 23 31.2 30 52 2.5 7.4 5.5 15.4 5.2 24.2-41-1.4-78.6 2.3-114.8 6.4-2.6-7.9-5.7-18.5-6.8-28.4-1.3-11.5 1.1-20.5 7.8-26.4 1.1-.9 3.1-1.4 3-3.2-1-1.1-2.4.4-3.2 1-2.7 2.2-5.6 5.5-7 8.8-10-6.6-17.5-17.4-34.4-17.8-.3-.8.9-1.9 1.6-2.8 5.1-6.6 11.3-12.8 17-19 6.5-7 12.4-15.5 21.2-19.8 11.5 6.3 31.3 8.7 47.8 5.2zm9.8-9.6c0 .3-.3.3-.4.6-.6 2.5-1 4.8-1.8 7-.8 2.1-2.7 4-2 6.2 3.4-2.7 5.5-8.6 5-13.8-.3 0-.5 0-.8 0zm2.2-.4c-.1.3-.4.2-.6.4.2 3.8-1.3 7-1.2 10 3-.8 3.2-7.2 2.6-10.2-.4 0-.4-.2-.8-.2zm13.8 39.8c-11.4-4.2-10.1 18 1 12.8.9-.4 1.1-1 2.2-1.8.6.5 1.2 1 2 .4-.1-3.1-1.7-6.2-2.4-9.6s-.9-7.1-2.2-10.2c-4 .5.1 6.3-.6 8.4zm-11.4 9.6c-.8-2.1-1.4-5.4-2.8-6.2-2.1-1.3-4.8.3-5.8 2.2-2.7-3-5.9.6-6.4 3.4-.4-1.6 0-4-2.2-3.8-1.4 3 .5 5.5 1.2 9 .4 2 .8 5.8 2.8 5.2 2.1-.6-1.3-6.3-.8-7.8 1-1.6 1.3-3.7 3-4.6.8 1.8 1.3 3.6 2.2 6 .5 1.4 1.1 5.9 3 5.4 1.7-.5.2-3.8-.2-5-.7-1.9-1.5-3.3-1.8-5.2 1-.9 1.5-2.2 3-2.6 1.4.8 1.9 2.9 2.8 5.4.7 2 1.5 6.2 3.6 5 .8-1.6-.7-4-1.6-6.4zm-27.6 1.4c-.3-.9-.6-2-2-1.8 0 .2-.2.2-.4.2.1 4.6 1.8 9.4 3.2 13.4h1.4c1.5-2.2-1.3-5.6-1.2-8.4.1-2.3 1.7-3.7 4-4.4.1 1.1.3 2 .8 2.6.7.1 1.1-.1 1.6-.2 1.5-7.2-5.7-5.2-7.4-1.4zm-7.6.2c-.6 3.3.5 7.6-.2 11-1.9-3.3-2.4-8.1-5.6-10-2.5 2-.6 8.2-2 11.2-.3-1.8-1.3-3.1-2-5-.5-1.4-.8-4.7-2.6-4.4-1.7.3-.7 2.2-.2 3.4 1.5 3.9 2.7 8.2 5.6 10 2.4-1.8 1-7.2 2.4-10 1 1.5 2.4 8.9 5.4 8 .9-.3 1.3-2.5 1.4-3.6.3-3-.1-8.1-.2-10.8-.4-.4-1.9-.8-2 .2zm40 25.2c3.3 1.1 5.3-1.3 6.2-3.4.2 3 1.3 5.5-.8 7.2-1.2 1-6.2.5-6.2 2.2 0 2.2 5.7.8 7.4-.2 3.7-2.3 1.9-8.1 1.2-11.8-.4-2.3-.3-4.5-1.4-7-9.1-4.8-14.1 10.5-6.4 13zm-14-7.6c-.3-.9-.6-2-2-1.8-1.2 1.9.2 4.5.8 6.8.6 2.4 1 5 2 6.8h1.4c1.5-2.2-1.3-5.6-1.2-8.4.1-2.3 1.7-3.7 4-4.4.1 1.1.3 2 .8 2.6.7.1 1.1-.1 1.6-.2 1.5-7.2-5.7-5.2-7.4-1.4zm-10 14.8c7.5 0 6.7-15.3-1.2-14-7 1.2-5.7 14 1.2 14zm-7 1c0-1.3-1-1.5-1.6-1.4-4.4.5 1.7 5.7 1.6 1.4z" fill="#3b556a"/><path d="m229.4 224.4v5.4c-.6 2.2-2.5 2-5.2 1.8 3.7 20.7 1 41.4-7.6 54-8.5 12.4-22.7 21.7-38 26.6-16.6 5.3-40.3 5.2-57.8 1.2-17.2-3.9-31.1-12.7-40.8-23.8-14.5 10.2-29.2 20.2-46.6 28.2-6.6 3-18 9-25.8 3.8-4.8-3.2-6.7-9.5-7-16.8-.3-7.5 2-14.2 3.8-19.8 3.9-12 9.3-23.1 15.2-32.2 12.8-19.7 32-31.9 62.8-31.4-3.9-6.1-11.9-12.3-12.6-22.6-.5-7.6 1.7-13.5 4-19.2-1.8-1.8-5-4.3-4.6-8.2.2-1.9 2.5-5 4.2-7 8.5-10.4 17.8-19.2 26.8-29.2 3.5-4 7.8-7.7 13.2-9 1.5-.4 3.3-.1 4.4-.4 1.1-.4 1.1-1.5 1.6-2.6-8.8.8-14.2-4.2-18.8-9-3.6-3.7-6.9-8-8.2-13.2-2.3-9.1-.7-21.4 3-27.6 1.1-1.9 3.6-4.2 4.2-6.4.4-1.4.2-3 .4-4.4 1.3-9 5.3-16.2 9.2-23 4.9-5.7 9.8-11.6 17.6-14.4 7.6-2.8 16.6-4.8 27-5-3.3-4.4-8.1-8.8-17-8.8-2.5 0-5.2.9-7.2 0 1.2-1.8 4.1-1.6 6.4-1.8 8.8-.7 13.5 3.2 18 7.8.2.2.4 1.3 1 .8-.7-2.7-1-5.4-1.8-8-.7-2.4-2.6-4.6-2-6.8 2.4 1.4 3.3 4.6 4.2 7.6.9 3.1.9 6.7 2 9.6-.2-6.8 1.3-12.6 4-17 .7-1.2 1.8-3.5 3.6-3-1.1 3.1-3.3 5.6-4.4 9s-1.1 7.2-1.8 11.4c5.6 1.8 10 5.3 13.8 9.4 1.2 1.3 2.1 3 3.4 4.2 2.1 1.9 5.5 3.7 8.2 5.6 1.7 1.2 7 4 8 5.8 1.7 3 1.2 7.2 2.6 10.2 7.8-1.7 12.7 5.9 16.4 11.2 3.3 4.7 5.2 10.1 6.8 15.8 1.8 6.4 2.9 13 1.6 19.8-1.2 6.2-3.4 11.7-6 16.4 8 7.4-.6 18.2-5.6 24-2.4 2.8-5.8 6.2-8.8 9.2-.9.9-3 2.6-3 3 0 .1 2.1 2.7 2.8 3.6 14 17.7 25 39.1 30.4 65.2zm-79.8-202.2c-16.6 1.3-31.6 6.8-38 18 6 3.3 12.6 7.2 18.8 10.8 1.7 1 4.7 3.4 6.4 3.6 2.2.3 4.6-1 6.8-.8.1-5.5 2-8.8 5.4-12 2.4-2.2 6.5-4.9 9.4-4.6 3.3.4 4.8 3.5 7.2 5.2 1.6-3.6 2.9-7.3 8.4-7-4.7-7.3-12.4-14.1-24.4-13.2zm24 15.2c-.4 0-1.3-.1-1.8 0-2.2.4-5 4.7-4.8 7 .2 2 3.1 4.3 3.2 6.4 4.8-1 9.3-2.5 14-3.6-1.7-4.3-5.1-9.3-10.6-9.8zm-9.2 6.8c-1.3-1.7-3.6-4.6-5.8-5-3.3-.6-7.5 3-9.4 5-2.2 2.4-3.7 5.7-3.6 9.4 7.5-.8 15-1.7 22.6-2.4-.9-2.6-2.1-4.7-3.8-7zm-28.8 12c-8.2-4.9-16.5-9.8-25-14.4-3.8 5-7.7 13.2-8.8 21-.2 1.2.1 2.6-.2 4-.4 2.1-2.6 4.6-3.8 6.4-1.4 2.1-2.7 4.3-3.4 7-1.4 5.8-1.3 13.2-.2 19.2 1 5.5 3.7 9.3 7.4 13.2 2.9 3 7.8 7.6 12.2 8.6 3.9.9 9.8-.4 14.2-.2 9.8.6 19.2 4.5 28.2 4.4 8.3-.1 15.7-3.3 19-9-12.1 1-21.3-2.8-28.6-7.8-.7-.5-5.2-4.6-5.8-4.6-.1 0-1.1.9-1.4 1.2-1.7 1.3-3.4 2.9-5.4 2.2.9-2.2 3.4-2.8 5.2-4.2 2.2-1.8 3.5-5.1 6.6-5.2-.3 2.5-2.6 3-3.6 4.8 6.6 5.4 14.8 11.2 26.4 11.8 4.8.2 9.4-.3 13.6-1 3.9-.6 8.5-1.3 11.2-3.4 3-2.4 3.9-6.8 3.4-11.4-1.2-11.7-15-14.6-24-18.6-2.5 3-6.2 7.7-11.6 7.6-3.2-.1-5.4-2-7.6-3.8-.1 1-1.3.6-2 .6-2.8.2-5.7 0-8.4.6-2.6.5-4.9 2.3-6.6 1.4 2.7-3.6 9.5-4.2 15.8-3.6-1.2-.7-1.6-3.7-3.6-4.2s-4.4 1.3-6.8.6c-2.8-7.1-4.1-15.6-6.4-23.2zm50.4-9.6c1.2 0 1.8-.6 3-.6-1.5-1.4-3.9-3.1-5.4-3.8 1 1.3 1.9 2.7 2.4 4.4zm1 1.8c1.8 3.8 2.9 8.3 3.2 13.6.5-2.1 2-3.2 3-4.8-1.2-3-1.4-7-2.8-9.8-1 .5-2.3.6-3.4 1zm-16.2 4.2c1.7 5.4 2.5 11.7 2.8 18.4.8.4.6 1.8 1.6 2 4.3-1 8.2-2.3 12.6-3.2.8-7.5.3-16.2-3-20.8-4.7 1.1-9.2 2.6-14 3.6zm-25.4 3c.2 4 .2 8 1 12 .5 2.5 1.8 8.4 4 9 1.1.3 3.5-.4 5-.6 5.3-.6 10.2-1.3 15.2-1.8 2-6.4 0-15.7-2-21.2-7.6 1-15.6 1.6-23.2 2.6zm-7.8 1c1.9 6.9 3.7 13.9 5.4 21 1.5-.4 3.6-.3 5-.8-3.7-4.8-4.5-12.4-4.4-21-2 .2-4.4.2-6 .8zm80.8 38.8c0-7.6-2.9-15.5-5.6-21.2-1.3-2.9-2.9-5.6-5-8.4-1.9-2.5-4.4-5.8-6.6-7-6.1-3.3-10.2 2.7-10.2 8 0 7.4 7.3 12.1 6.6 18.4-.2 1.7-2.4 5-2.4 5.6 0 .2 1.2 1.7 1.4 2 4 7 2.1 19.8-6.6 20.8 5.7 4.2 12.1 7.8 18.2 11.6 4.8-8.1 10.2-17.6 10.2-29.8zm-36.4-13.6c4.7 1.8 8.5 4.6 12.2 7.4 4.2-7.2-2.9-12.7-4.6-18.4-.6 5.6-4.2 8.2-7.6 11zm-1.2-1.8c2.6-1.4 7-5.6 6.2-8.2-4.3 1.1-8.8 2.9-13.2 3.2v3c1.9 1.1 3.7 2.3 7 2zm-13.4 3.2c1.9-1.6 5.2-3.9 4.2-7.4-6.5 1.1-13.4 1.8-20.2 2.6 3 5.4 9.7 10.1 16 4.8zm-55.6 45.4c-8.8 4.3-14.7 12.8-21.2 19.8-5.7 6.2-11.9 12.4-17 19-.7.9-1.9 2-1.6 2.8 16.9.4 24.4 11.2 34.4 17.8 1.4-3.3 4.3-6.6 7-8.8.8-.6 2.2-2.1 3.2-1 .1 1.8-1.9 2.3-3 3.2-6.7 5.9-9.1 14.9-7.8 26.4 1.1 9.9 4.2 20.5 6.8 28.4 36.2-4.1 73.8-7.8 114.8-6.4.3-8.8-2.7-16.8-5.2-24.2-7-20.8-17.6-37.1-30-52-1-1.1-2.9-2.5-2.4-4.4 2.7-.2 3.4 4.3 5.6 4.6 1.5-.8.2-2.8-.2-4.8s-1.2-4.5.2-5.6c1.9 1.5 1.4 5.4 2.2 8 5.9-5.5 12.3-12.4 16.6-20.2-8.9-5.6-18-11-26.6-16.8-3.1.9-6.5 1.5-10.2 1.8-1.8 4.6-5.6 7.2-10.4 8.8-2.7 4.9-5.8 9.9-8.6 14.4-.9 1.5-1.5 3.9-3.6 4.2.2-3.9 3.5-6.4 4.8-9.8-16.5 3.5-36.3 1.1-47.8-5.2zm97.8-2.4c1.8 1 3.5 2.1 5.2 3.2.7-3.4-.4-6.5-2.2-8-1 1.6-1.9 3.3-3 4.8zm-88-3.2c-.4 1-.9 2.2-1.4 3.4-.5 1.3-1.4 2.6-1.2 3 10.7 5 29.1 5.2 42 2 1.3-1.6 2.3-3.6 3.4-5.4-14.9 3.9-27.4-4.3-42.8-3zm-4.8 5.6c.1-.4.5-.4.6-.8-.8.1-2.1-.3-2.6.2.8 0 1.1.6 2 .6zm-45.6 43.6c.3 2.8 1.8 4.4 3.6 5.6.9-1.2 1.1-4.1 3.2-3.6.5 1.9-1.1 3.2-1.8 4.6-2.3 4.8-4.6 10.8-4.6 17.6 0 11.4 8.7 19.1 14.2 25.6 3 3.6 4.8 9.2 10.6 9.2 3.7 0 10.5-4.1 10.8-6.4.2-1.2-1-4.4-1.4-6.4-1.9-8.7-3.8-20.8-.4-28.4-10-7.4-17.1-17.6-34.2-17.8zm17.6 57.2c-1.6-1.9-3-5.6-4.8-6.2-2-.6-6 .1-7.8.2-22.7 1.4-39.2 9.3-50.8 24.4-7.9 10.2-14.5 23.5-19 37.4-1.6 4.8-3.4 10.1-3.8 15.2-.8 11.8 2.3 22 13.8 21.2 6.3-.4 12.6-3.5 17.8-6 16.1-7.8 31.3-18.1 44.6-27.4-1-1.6-2.6-3.7-3.8-5.6-1-1.6-3.4-4.5-1.8-6 1.7 1.2 2.6 3.2 3.6 4.8 1.1 1.8 2.1 3.5 3.4 5.2 16.1 21.5 51.6 33 89.6 25.8 17.9-3.4 33.1-12.6 43.2-25 10-12.3 13.2-34 9.2-55.8-37.9-1-72.9 2.6-106.8 6.2 2.9 4.9 9.1 7.8 14.6 9.8 1 .4 3.1.4 3 2-2.7.4-5.6-1-8-2-3.8-1.6-7.5-4-9.8-6.8-.8-1-1.2-3-3-2.6 1.7 6.7 5.5 13 9 18.4 1.2 1.8 3.2 3.6 2.8 5.8-2.4-1.1-3.7-3.9-5.2-6.2-3.1-4.7-5.7-9.3-7.8-15-1-2.8-2.5-6.2-2.6-8.8-.1-1.8.4-3.3-.4-5-2.3 1.5-4.2 3.4-6.8 4.6.2 2.1-.2 4.6-.6 7-.3 2.2-.3 5.3-1.8 6.4-1.3-.2-.7-1.9-.6-2.8.3-3.4 1.1-7 1.4-10-5.1 1.3-8.6-.6-10.8-3.2z"/><path d="m184.8 49c3.3 4.6 3.8 13.3 3 20.8-4.4.9-8.3 2.2-12.6 3.2-1-.2-.8-1.6-1.6-2-.3-6.7-1.1-13-2.8-18.4 4.8-1 9.3-2.5 14-3.6zm-5.2 21.6c3.6-2.1 4-11.3.6-14-7.7-1.4-7.2 14.6-.6 14z" fill="#fff"/></g></svg>